# xmcd
#
# Track frame offsets: 
#        150
#        18229
#        28764
#        41899
#        70284
#        88649
#        103719
#        136176
#        148699
#        160636
#        170676
#        185346
#        195664
#        207629
#        223194
#
# Disc length: 3210 seconds
#
# Revision: 0
# Processed by: cddbd v1.5.2PL0 Copyright (c) Steve Scherf et al.
# Submitted via: ExactAudioCopy v1.3
#
DISCID=de0c880f
DTITLE=Buddy Guy - Buddy's Blues
DYEAR=1997
DGENRE=Chicago Blues, Electric Blues
TTITLE0=Worried Mind
TTITLE1=First Time I Met The Blues
TTITLE2=Let Me Love You Baby
TTITLE3=I Found A True Love
TTITLE4=Pretty Baby
TTITLE5=My Time After A While
TTITLE6=Stone Crazy
TTITLE7=Keep It To Myself
TTITLE8=Ten Years Ago
TTITLE9=Got To Use Your Head
TTITLE10=I Cry And Sing The Blues
TTITLE11=She Suits Me To A Tee
TTITLE12=My Love Is Real
TTITLE13=Leave My Girl Alone
TTITLE14=When My Left Eye Jumps
EXTD=
EXTT0=
EXTT1=
EXTT2=
EXTT3=
EXTT4=
EXTT5=
EXTT6=
EXTT7=
EXTT8=
EXTT9=
EXTT10=
EXTT11=
EXTT12=
EXTT13=
EXTT14=
PLAYORDER=
